<svg xmlns="http://www.w3.org/2000/svg" width="96" height="96" fill="none" viewBox="0 0 96 96"><path fill="#DF7F0D" d="M68 77.4705C68 76.1061 59.0457 75 48 75C36.9543 75 28 76.1061 28 77.4705V81.5295C28 82.8939 36.9543 84 48 84C59.0457 84 68 82.8939 68 81.5295V77.4705Z"/><path fill="#B14A1E" fill-rule="evenodd" d="M68.6273 75.2604C68.9687 75.4665 70 76.1506 70 77.4705V81.5295C70 82.8494 68.9687 83.5335 68.6273 83.7396C68.1421 84.0324 67.5566 84.2451 66.989 84.4109C65.8236 84.7513 64.235 85.0331 62.3873 85.2613C58.664 85.7212 53.5782 86 48 86C42.4218 86 37.336 85.7212 33.6127 85.2613C31.765 85.0331 30.1764 84.7513 29.011 84.4109C28.4434 84.2451 27.8579 84.0324 27.3727 83.7396C27.0313 83.5335 26 82.8494 26 81.5295V77.4705C26 76.1506 27.0313 75.4665 27.3727 75.2604C27.8579 74.9676 28.4434 74.7549 29.011 74.5891C30.1764 74.2487 31.765 73.9669 33.6127 73.7387C37.336 73.2788 42.4218 73 48 73C53.5782 73 58.664 73.2788 62.3873 73.7387C64.235 73.9669 65.8236 74.2487 66.989 74.5891C67.5566 74.7549 68.1421 74.9676 68.6273 75.2604ZM48 75C59.0457 75 68 76.1061 68 77.4705V81.5295C68 82.8939 59.0457 84 48 84C36.9543 84 28 82.8939 28 81.5295V77.4705C28 76.1061 36.9543 75 48 75Z" clip-rule="evenodd"/><path fill="#C06A04" d="M68 81.5295V78.4705C66.5017 79.6869 61.8303 80.4067 57 80.7565V83.7363C63.5252 83.3295 68 82.494 68 81.5295Z"/><path fill="#F8BA1C" d="M68 77.5C68 78.8807 59.0457 80 48 80C36.9543 80 28 78.8807 28 77.5C28 76.1193 36.9543 75 48 75C59.0457 75 68 76.1193 68 77.5Z"/><path fill="#B14A1E" fill-rule="evenodd" d="M66.3391 78.499C66.2854 78.5144 66.2305 78.5298 66.1743 78.545C63.0086 79.4038 56.0613 80 48 80C39.9387 80 32.9914 79.4038 29.8257 78.545C29.7695 78.5298 29.7146 78.5144 29.6609 78.4991C28.5926 78.1931 28 77.8552 28 77.5C28 77.1448 28.5926 76.8069 29.6609 76.501C29.7146 76.4856 29.7695 76.4702 29.8257 76.455C32.9914 75.5962 39.9387 75 48 75C56.0613 75 63.0086 75.5962 66.1743 76.455C66.2305 76.4702 66.2854 76.4856 66.3391 76.501C67.4074 76.8069 68 77.1448 68 77.5C68 77.8552 67.4074 78.1931 66.3391 78.499ZM66.5511 76.2971C66.5484 76.2987 66.5452 76.3006 66.5416 76.3026C66.5854 76.2698 66.5974 76.2688 66.5511 76.2971ZM29.4489 76.2971C29.4026 76.2688 29.4146 76.2698 29.4584 76.3027C29.4548 76.3006 29.4516 76.2987 29.4489 76.2971ZM29.4489 78.7029C29.4516 78.7013 29.4548 78.6994 29.4584 78.6973C29.4146 78.7302 29.4026 78.7312 29.4489 78.7029ZM66.5511 78.7029C66.5974 78.7312 66.5854 78.7302 66.5416 78.6974C66.5452 78.6994 66.5484 78.7013 66.5511 78.7029ZM62.3902 81.2523C58.6657 81.7179 53.5789 82 48 82C42.4211 82 37.3343 81.7179 33.6098 81.2523C31.7616 81.0213 30.1717 80.7359 29.0049 80.3911C28.4364 80.2231 27.8497 80.0074 27.3637 79.7106C27.0147 79.4974 26 78.8104 26 77.5C26 76.1896 27.0147 75.5026 27.3637 75.2894C27.8497 74.9926 28.4364 74.7769 29.0049 74.6089C30.1717 74.2641 31.7616 73.9787 33.6098 73.7477C37.3343 73.2821 42.4211 73 48 73C53.5789 73 58.6657 73.2821 62.3902 73.7477C64.2384 73.9787 65.8283 74.2641 66.9951 74.6089C67.5636 74.7769 68.1503 74.9926 68.6363 75.2894C68.9853 75.5026 70 76.1896 70 77.5C70 78.8104 68.9853 79.4974 68.6363 79.7106C68.1503 80.0074 67.5636 80.2231 66.9951 80.3911C65.8283 80.7359 64.2384 81.0213 62.3902 81.2523Z" clip-rule="evenodd"/><path fill="#F7AF23" fill-rule="evenodd" d="M31.5097 81.9019C31.5638 81.6311 31.8273 81.4555 32.098 81.5097C33.3124 81.7526 35.9055 82.0009 38.4124 82.1889C40.914 82.3765 43.2713 82.5 44 82.5C44.2761 82.5 44.5 82.7238 44.5 83C44.5 83.2761 44.2761 83.5 44 83.5C43.2287 83.5 40.8359 83.3735 38.3376 83.1861C35.8444 82.9991 33.1875 82.7474 31.9019 82.4903C31.6311 82.4361 31.4555 82.1727 31.5097 81.9019Z" clip-rule="evenodd"/><path fill="#762807" d="M31 32.5C31 31.6716 31.6716 31 32.5 31 33.3284 31 34 31.6716 34 32.5V37.5C34 38.3284 33.3284 39 32.5 39 31.6716 39 31 38.3284 31 37.5V32.5zM62 32.5C62 31.6716 62.6716 31 63.5 31 64.3284 31 65 31.6716 65 32.5V37.5C65 38.3284 64.3284 39 63.5 39 62.6716 39 62 38.3284 62 37.5V32.5z"/><path fill="#682E05" fill-rule="evenodd" d="M31 27C31.5523 27 32 27.4477 32 28V58C32 61.866 35.134 65 39 65H57C60.866 65 64 61.866 64 58V28C64 27.4477 64.4477 27 65 27C65.5523 27 66 27.4477 66 28V58C66 62.9706 61.9706 67 57 67H39C34.0294 67 30 62.9706 30 58V28C30 27.4477 30.4477 27 31 27Z" clip-rule="evenodd"/><path fill="#DF7F0D" d="M46 63H50L53 77H43L46 63Z"/><path fill="#B14A1E" fill-rule="evenodd" d="M44.0444 62.5809C44.242 61.6588 45.0569 61 46 61H50C50.9431 61 51.758 61.6588 51.9556 62.5809L54.9556 76.5809C55.0822 77.1715 54.9351 77.7877 54.5554 78.2574C54.1756 78.7271 53.604 79 53 79H43C42.396 79 41.8244 78.7271 41.4447 78.2574C41.065 77.7877 40.9179 77.1715 41.0444 76.5809L44.0444 62.5809ZM46 63H50L53 77H43L46 63Z" clip-rule="evenodd"/><path fill="#F8BA1C" d="M46 63H47L46 77H43L46 63Z"/><path fill="#C06A04" d="M49 63H50L53 77H50L49 63Z"/><path fill="#F8BA1C" d="M35 16C35 13.7909 36.7909 12 39 12H57C59.2091 12 61 13.7909 61 16V54C61 56.2091 59.2091 58 57 58H39C36.7909 58 35 56.2091 35 54V16Z"/><path fill="#B24A1E" fill-rule="evenodd" d="M39 10H57C60.3137 10 63 12.6863 63 16V54C63 57.3137 60.3137 60 57 60H39C35.6863 60 33 57.3137 33 54V16C33 12.6863 35.6863 10 39 10ZM39 12C36.7909 12 35 13.7909 35 16V54C35 56.2091 36.7909 58 39 58H57C59.2091 58 61 56.2091 61 54V16C61 13.7909 59.2091 12 57 12H39Z" clip-rule="evenodd"/><path fill="#F9CC2C" fill-rule="evenodd" d="M59 15C59.5523 15 60 15.4477 60 16V44H58V16C58 15.4477 58.4477 15 59 15Z" clip-rule="evenodd"/><path fill="#FFE179" fill-rule="evenodd" d="M37 15C37.5523 15 38 15.4477 38 16V44H36V16C36 15.4477 36.4477 15 37 15Z" clip-rule="evenodd"/><path fill="#DF7F0D" d="M35 44H61V54C61 56.2091 59.2091 58 57 58H39C36.7909 58 35 56.2091 35 54V44Z"/><path fill="#F7AF23" fill-rule="evenodd" d="M36 54V44H38V54C38 54.5523 37.5523 55 37 55C36.4477 55 36 54.5523 36 54Z" clip-rule="evenodd"/><path fill="#E9A218" fill-rule="evenodd" d="M58 54V44H60V54C60 54.5523 59.5523 55 59 55C58.4477 55 58 54.5523 58 54Z" clip-rule="evenodd"/><path fill="#EFA20B" d="M59 15C59 14.4477 58.5523 14 58 14 57.4477 14 57 14.4477 57 15 57 15.5523 57.4477 16 58 16 58.5523 16 59 15.5523 59 15zM59 19C59 18.4477 58.5523 18 58 18 57.4477 18 57 18.4477 57 19 57 19.5523 57.4477 20 58 20 58.5523 20 59 19.5523 59 19zM55 19C55 18.4477 54.5523 18 54 18 53.4477 18 53 18.4477 53 19 53 19.5523 53.4477 20 54 20 54.5523 20 55 19.5523 55 19zM57 17C57 16.4477 56.5523 16 56 16 55.4477 16 55 16.4477 55 17 55 17.5523 55.4477 18 56 18 56.5523 18 57 17.5523 57 17zM53 17C53 16.4477 52.5523 16 52 16 51.4477 16 51 16.4477 51 17 51 17.5523 51.4477 18 52 18 52.5523 18 53 17.5523 53 17zM55 15C55 14.4477 54.5523 14 54 14 53.4477 14 53 14.4477 53 15 53 15.5523 53.4477 16 54 16 54.5523 16 55 15.5523 55 15zM57 21C57 20.4477 56.5523 20 56 20 55.4477 20 55 20.4477 55 21 55 21.5523 55.4477 22 56 22 56.5523 22 57 21.5523 57 21zM57 25C57 24.4477 56.5523 24 56 24 55.4477 24 55 24.4477 55 25 55 25.5523 55.4477 26 56 26 56.5523 26 57 25.5523 57 25zM53 25C53 24.4477 52.5523 24 52 24 51.4477 24 51 24.4477 51 25 51 25.5523 51.4477 26 52 26 52.5523 26 53 25.5523 53 25zM55 23C55 22.4477 54.5523 22 54 22 53.4477 22 53 22.4477 53 23 53 23.5523 53.4477 24 54 24 54.5523 24 55 23.5523 55 23zM59 23C59 22.4477 58.5523 22 58 22 57.4477 22 57 22.4477 57 23 57 23.5523 57.4477 24 58 24 58.5523 24 59 23.5523 59 23zM59 27C59 26.4477 58.5523 26 58 26 57.4477 26 57 26.4477 57 27 57 27.5523 57.4477 28 58 28 58.5523 28 59 27.5523 59 27zM55 27C55 26.4477 54.5523 26 54 26 53.4477 26 53 26.4477 53 27 53 27.5523 53.4477 28 54 28 54.5523 28 55 27.5523 55 27zM51 23C51 22.4477 50.5523 22 50 22 49.4477 22 49 22.4477 49 23 49 23.5523 49.4477 24 50 24 50.5523 24 51 23.5523 51 23zM53 21C53 20.4477 52.5523 20 52 20 51.4477 20 51 20.4477 51 21 51 21.5523 51.4477 22 52 22 52.5523 22 53 21.5523 53 21zM51 15C51 14.4477 50.5523 14 50 14 49.4477 14 49 14.4477 49 15 49 15.5523 49.4477 16 50 16 50.5523 16 51 15.5523 51 15zM51 19C51 18.4477 50.5523 18 50 18 49.4477 18 49 18.4477 49 19 49 19.5523 49.4477 20 50 20 50.5523 20 51 19.5523 51 19zM47 19C47 18.4477 46.5523 18 46 18 45.4477 18 45 18.4477 45 19 45 19.5523 45.4477 20 46 20 46.5523 20 47 19.5523 47 19zM49 17C49 16.4477 48.5523 16 48 16 47.4477 16 47 16.4477 47 17 47 17.5523 47.4477 18 48 18 48.5523 18 49 17.5523 49 17zM45 17C45 16.4477 44.5523 16 44 16 43.4477 16 43 16.4477 43 17 43 17.5523 43.4477 18 44 18 44.5523 18 45 17.5523 45 17zM47 15C47 14.4477 46.5523 14 46 14 45.4477 14 45 14.4477 45 15 45 15.5523 45.4477 16 46 16 46.5523 16 47 15.5523 47 15zM49 21C49 20.4477 48.5523 20 48 20 47.4477 20 47 20.4477 47 21 47 21.5523 47.4477 22 48 22 48.5523 22 49 21.5523 49 21zM49 25C49 24.4477 48.5523 24 48 24 47.4477 24 47 24.4477 47 25 47 25.5523 47.4477 26 48 26 48.5523 26 49 25.5523 49 25zM45 25C45 24.4477 44.5523 24 44 24 43.4477 24 43 24.4477 43 25 43 25.5523 43.4477 26 44 26 44.5523 26 45 25.5523 45 25zM47 23C47 22.4477 46.5523 22 46 22 45.4477 22 45 22.4477 45 23 45 23.5523 45.4477 24 46 24 46.5523 24 47 23.5523 47 23zM43 15C43 14.4477 42.5523 14 42 14 41.4477 14 41 14.4477 41 15 41 15.5523 41.4477 16 42 16 42.5523 16 43 15.5523 43 15zM41 17C41 16.4477 40.5523 16 40 16 39.4477 16 39 16.4477 39 17 39 17.5523 39.4477 18 40 18 40.5523 18 41 17.5523 41 17zM43 19C43 18.4477 42.5523 18 42 18 41.4477 18 41 18.4477 41 19 41 19.5523 41.4477 20 42 20 42.5523 20 43 19.5523 43 19zM51 27C51 26.4477 50.5523 26 50 26 49.4477 26 49 26.4477 49 27 49 27.5523 49.4477 28 50 28 50.5523 28 51 27.5523 51 27zM53 29C53 28.4477 52.5523 28 52 28 51.4477 28 51 28.4477 51 29 51 29.5523 51.4477 30 52 30 52.5523 30 53 29.5523 53 29zM57 29C57 28.4477 56.5523 28 56 28 55.4477 28 55 28.4477 55 29 55 29.5523 55.4477 30 56 30 56.5523 30 57 29.5523 57 29zM59 31C59 30.4477 58.5523 30 58 30 57.4477 30 57 30.4477 57 31 57 31.5523 57.4477 32 58 32 58.5523 32 59 31.5523 59 31zM55 31C55 30.4477 54.5523 30 54 30 53.4477 30 53 30.4477 53 31 53 31.5523 53.4477 32 54 32 54.5523 32 55 31.5523 55 31zM51 31C51 30.4477 50.5523 30 50 30 49.4477 30 49 30.4477 49 31 49 31.5523 49.4477 32 50 32 50.5523 32 51 31.5523 51 31zM57 33C57 32.4477 56.5523 32 56 32 55.4477 32 55 32.4477 55 33 55 33.5523 55.4477 34 56 34 56.5523 34 57 33.5523 57 33zM59 35C59 34.4477 58.5523 34 58 34 57.4477 34 57 34.4477 57 35 57 35.5523 57.4477 36 58 36 58.5523 36 59 35.5523 59 35zM43 23C43 22.4477 42.5523 22 42 22 41.4477 22 41 22.4477 41 23 41 23.5523 41.4477 24 42 24 42.5523 24 43 23.5523 43 23zM45 21C45 20.4477 44.5523 20 44 20 43.4477 20 43 20.4477 43 21 43 21.5523 43.4477 22 44 22 44.5523 22 45 21.5523 45 21z"/><path fill="#525252" d="M51 51C51 52.6569 49.6569 54 48 54C46.3431 54 45 52.6569 45 51C45 49.3431 46.3431 48 48 48C49.6569 48 51 49.3431 51 51Z"/><path fill="#B14A1E" fill-rule="evenodd" d="M53 51C53 53.7614 50.7614 56 48 56C45.2386 56 43 53.7614 43 51C43 48.2386 45.2386 46 48 46C50.7614 46 53 48.2386 53 51ZM48 54C49.6569 54 51 52.6569 51 51C51 49.3431 49.6569 48 48 48C46.3431 48 45 49.3431 45 51C45 52.6569 46.3431 54 48 54Z" clip-rule="evenodd"/><path fill="#6C6C6C" d="M48 50C48 50.5523 47.5523 51 47 51C46.4477 51 46 50.5523 46 50C46 49.4477 46.4477 49 47 49C47.5523 49 48 49.4477 48 50Z"/></svg>
