<?xml version="1.0" ?><!DOCTYPE svg  PUBLIC '-//W3C//DTD SVG 1.1//EN'  'http://www.w3.org/Graphics/SVG/1.1/DTD/svg11.dtd'><svg enable-background="new 0 0 128 128" id="Слой_1" version="1.1" viewBox="0 0 128 128" xml:space="preserve" xmlns="http://www.w3.org/2000/svg" xmlns:xlink="http://www.w3.org/1999/xlink"><g><g><path d="M6.9,71.1l50,50c3.9,3.9,10.2,3.9,14.1,0l50-50c3.9-3.9,3.9-10.2,0-14.1l-50-50C67.2,3,60.8,3,56.9,6.9    l-50,50C3,60.8,3,67.2,6.9,71.1z" fill="#F89D6F"/></g><g opacity="0.2"><g><path d="M107.1,71.1c3.9-3.9,3.9-10.2,0-14.1l-50-50c0,0,0,0-0.1-0.1C60.9,3,67.2,3.1,71.1,6.9l50,50     c3.9,3.9,3.9,10.2,0,14.1l-50,50c-3.9,3.9-10.2,3.9-14.1,0.1c0,0,0,0,0.1-0.1L107.1,71.1z" fill="#62345B"/></g></g><g><path d="M64,114L17.5,67.5c-2-2-2-5.1,0-7.1l42.9-42.9c2-2,5.1-2,7.1,0l42.9,42.9c2,2,2,5.1,0,7.1L64,114    C64,114,64,114,64,114z" fill="#FFFFFF"/></g><g><path d="M64,125.5c-3.1,0-6-1.2-8.1-3.4l-50-50C3.7,70,2.5,67.1,2.5,64s1.2-6,3.4-8.1l50-50    C58,3.7,60.9,2.5,64,2.5c3.1,0,6,1.2,8.1,3.4l50,50c2.2,2.2,3.4,5.1,3.4,8.1s-1.2,6-3.4,8.1l-50,50C70,124.3,67.1,125.5,64,125.5z     M64,5.5c-2.3,0-4.4,0.9-6,2.5L8,58c-1.6,1.6-2.5,3.7-2.5,6s0.9,4.4,2.5,6l50,50c1.6,1.6,3.7,2.5,6,2.5s4.4-0.9,6-2.5l50-50    c1.6-1.6,2.5-3.7,2.5-6s-0.9-4.4-2.5-6L70,8C68.4,6.4,66.3,5.5,64,5.5z" fill="#62345B"/></g><g><path d="M42.6,52.8h-1c-0.4,0-0.8,0.3-0.8,0.8v8.4c0,2.5-1.8,3.6-3.4,3.6c-1.7,0-3.4-1.1-3.4-3.6v-8.4    c0-0.4-0.3-0.8-0.8-0.8h-1c-0.4,0-0.8,0.3-0.8,0.8v8.4c0,4,3,6,5.9,6c2.9,0,5.9-2.1,5.9-6v-8.4C43.3,53.1,43,52.8,42.6,52.8z" fill="#62345B"/><path d="M45.4,67.8h1c0.4,0,0.8-0.3,0.8-0.8v-9l7.8,9.5c0.1,0.2,0.4,0.3,0.6,0.3h0.4c0.4,0,0.8-0.3,0.8-0.8V53.5    c0-0.4-0.3-0.8-0.8-0.8h-1c-0.4,0-0.8,0.3-0.8,0.8v9l-7.7-9.5c-0.1-0.2-0.4-0.3-0.6-0.3h-0.4c-0.4,0-0.8,0.3-0.8,0.8V67    C44.7,67.4,45,67.8,45.4,67.8z" fill="#62345B"/><path d="M63.4,52.8h-4.6c-0.4,0-0.8,0.3-0.8,0.8V67c0,0.4,0.3,0.8,0.8,0.8h4.6c2.2,0,4.2-0.7,5.5-2.1    c1.4-1.4,2.1-3.4,2.1-5.5C70.9,56.6,68.5,52.8,63.4,52.8z M63.4,65.3h-2.8v-10h2.8c3.4,0,5,2.4,5,4.9c0,1.4-0.5,2.8-1.4,3.7    C66.2,64.8,64.9,65.3,63.4,65.3z" fill="#62345B"/><path d="M82.1,65.3h-7.8v-3.8h7.1c0.4,0,0.8-0.3,0.8-0.8v-0.9c0-0.4-0.3-0.8-0.8-0.8h-7.1v-3.7h7.5    c0.4,0,0.8-0.3,0.8-0.8v-1c0-0.4-0.3-0.8-0.8-0.8h-9.3c-0.4,0-0.8,0.3-0.8,0.8V67c0,0.4,0.3,0.8,0.8,0.8h9.5    c0.4,0,0.8-0.3,0.8-0.8v-1C82.9,65.6,82.6,65.3,82.1,65.3z" fill="#62345B"/><path d="M86.2,67v-4.4h2.6l4.4,4.9c0.1,0.2,0.3,0.2,0.6,0.2h1.4c0,0,0,0,0,0c0.4,0,0.8-0.3,0.8-0.8    c0-0.2-0.1-0.5-0.3-0.6l-3.7-4c0.9-0.2,1.6-0.6,2.2-1.2c0.9-0.9,1.3-2.1,1.3-3.5c0-2.5-1.8-4.9-5.2-4.9h-5.9    c-0.4,0-0.8,0.3-0.8,0.8V67c0,0.4,0.3,0.8,0.8,0.8h1C85.9,67.8,86.2,67.4,86.2,67z M90.3,60.2h-4v-4.9h4.1c0.8,0,1.4,0.2,1.9,0.7    c0.4,0.4,0.7,1.1,0.7,1.8C92.9,59.3,92,60.2,90.3,60.2z" fill="#62345B"/><path d="M35.6,76.2c-0.2-0.2-0.5-0.2-0.7,0c-0.3,0.3-0.7,0.5-1.2,0.5c-1.2,0-1.6-0.9-1.7-1.6    c0-0.5,0.2-0.9,0.5-1.2c0.3-0.3,0.7-0.4,1.2-0.4c0.4,0,0.9,0.2,1.2,0.5c0.2,0.2,0.5,0.2,0.7,0l0.3-0.2c0.1-0.1,0.2-0.2,0.2-0.4    s0-0.3-0.1-0.4c-0.6-0.6-1.3-0.9-2.1-0.9c-0.9,0-1.6,0.3-2.2,0.8c-0.6,0.6-0.9,1.3-0.8,2.2c0,1.8,1.3,3,3,3c0.8,0,1.6-0.3,2.1-0.9    c0.1-0.1,0.1-0.2,0.1-0.4c0-0.1-0.1-0.3-0.2-0.4L35.6,76.2z" fill="#62345B"/><path d="M39.7,72c-2,0-3,1.6-3,3c0,1.5,1,3,3,3c2,0,3-1.6,3-3c0-0.9-0.3-1.7-0.8-2.2C41.3,72.3,40.5,72,39.7,72z     M39.7,76.7c-1.1,0-1.6-0.8-1.6-1.7c0-0.5,0.2-1,0.5-1.3c0.3-0.3,0.7-0.4,1.1-0.4c1.2,0,1.6,0.9,1.6,1.7    C41.3,75.9,40.8,76.7,39.7,76.7z" fill="#62345B"/><path d="M48,72.1h-0.4c-0.3,0-0.5,0.2-0.5,0.5v2.6l-2.4-3c-0.1-0.1-0.2-0.2-0.4-0.2h-0.2c-0.3,0-0.5,0.2-0.5,0.5    v4.9c0,0.3,0.2,0.5,0.5,0.5h0.4c0.3,0,0.5-0.2,0.5-0.5v-2.6l2.4,3c0.1,0.1,0.2,0.2,0.4,0.2H48c0.3,0,0.5-0.2,0.5-0.5v-4.9    C48.5,72.3,48.2,72.1,48,72.1z" fill="#62345B"/><path d="M52,74.3c-0.7-0.1-1.1-0.2-1.1-0.4c0-0.5,1-0.5,1-0.5c0.6,0,0.9,0.1,1.1,0.4c0.1,0.2,0.4,0.3,0.7,0.2    l0.3-0.2c0.1-0.1,0.2-0.2,0.2-0.3s0-0.3-0.1-0.4c-0.6-0.9-1.4-1.1-2.2-1.1c-0.4,0-1.3,0.1-1.9,0.7c-0.3,0.3-0.5,0.7-0.5,1.2    c0,1.3,1.3,1.6,2.2,1.8c0.8,0.2,1.2,0.3,1.2,0.6c0,0.5-0.7,0.5-1.1,0.5c-0.4,0-1-0.2-1.2-0.6c-0.1-0.2-0.4-0.3-0.7-0.2l-0.3,0.2    c-0.1,0.1-0.2,0.2-0.3,0.3s0,0.3,0,0.4c0.5,1,1.6,1.3,2.5,1.3c1.5,0,2.4-0.7,2.4-1.9C54.3,74.8,53,74.5,52,74.3z" fill="#62345B"/><path d="M59.2,72.1h-3.9c-0.3,0-0.5,0.2-0.5,0.5V73c0,0.3,0.2,0.5,0.5,0.5h1.3v4.1c0,0.3,0.2,0.5,0.5,0.5h0.4    c0.3,0,0.5-0.2,0.5-0.5v-4.1h1.3c0.3,0,0.5-0.2,0.5-0.5v-0.3C59.7,72.3,59.5,72.1,59.2,72.1z" fill="#62345B"/><path d="M64.1,75.9c0.2-0.1,0.4-0.2,0.6-0.4c0.4-0.4,0.6-0.9,0.5-1.4c0-1-0.7-2-2.1-2H61c-0.3,0-0.5,0.2-0.5,0.5    v4.9c0,0.3,0.2,0.5,0.5,0.5h0.4c0.3,0,0.5-0.2,0.5-0.5v-1.4h0.6l1.5,1.7c0.1,0.1,0.2,0.2,0.4,0.2h0.5c0,0,0,0,0,0    c0.3,0,0.5-0.2,0.5-0.5c0-0.2-0.1-0.3-0.2-0.4L64.1,75.9z M61.9,73.5h1.3c0.2,0,0.4,0.1,0.5,0.2c0.1,0.1,0.2,0.3,0.2,0.5    c0,0.5-0.2,0.7-0.7,0.7h-1.2V73.5z" fill="#62345B"/><path d="M70.5,72.1h-0.4c-0.3,0-0.5,0.2-0.5,0.5v3c0,0.7-0.5,1.1-1,1.1c-0.5,0-1-0.3-1-1.1v-3    c0-0.3-0.2-0.5-0.5-0.5h-0.4c-0.3,0-0.5,0.2-0.5,0.5v3c0,1.6,1.2,2.4,2.4,2.4c1.2,0,2.4-0.8,2.4-2.4v-3    C71,72.3,70.7,72.1,70.5,72.1z" fill="#62345B"/><path d="M74.8,73.4c0.4,0,0.9,0.2,1.2,0.5c0.2,0.2,0.5,0.2,0.7,0l0.3-0.2c0.1-0.1,0.2-0.2,0.2-0.4s0-0.3-0.1-0.4    c-0.6-0.6-1.3-0.9-2.1-0.9c-0.9,0-1.6,0.3-2.2,0.8c-0.6,0.6-0.9,1.3-0.8,2.2c0,1.8,1.3,3,3,3c0.8,0,1.6-0.3,2.1-0.9    c0.1-0.1,0.1-0.2,0.1-0.4s-0.1-0.3-0.2-0.4l-0.3-0.2c-0.2-0.2-0.5-0.2-0.7,0c-0.3,0.3-0.7,0.5-1.2,0.5c-1.2,0-1.6-0.9-1.7-1.6    c0-0.5,0.2-0.9,0.5-1.2C73.9,73.5,74.3,73.4,74.8,73.4z" fill="#62345B"/><path d="M82,72.1h-3.9c-0.3,0-0.5,0.2-0.5,0.5V73c0,0.3,0.2,0.5,0.5,0.5h1.3v4.1c0,0.3,0.2,0.5,0.5,0.5h0.4    c0.3,0,0.5-0.2,0.5-0.5v-4.1H82c0.3,0,0.5-0.2,0.5-0.5v-0.3C82.5,72.3,82.3,72.1,82,72.1z" fill="#62345B"/><path d="M84.1,72.1h-0.4c-0.3,0-0.5,0.2-0.5,0.5v4.9c0,0.3,0.2,0.5,0.5,0.5h0.4c0.3,0,0.5-0.2,0.5-0.5v-4.9    C84.6,72.3,84.4,72.1,84.1,72.1z" fill="#62345B"/><path d="M88.7,72c-2,0-3,1.6-3,3c0,1.5,1,3,3,3c2,0,3-1.6,3-3c0-0.9-0.3-1.7-0.9-2.2C90.3,72.3,89.5,72,88.7,72z     M88.7,76.7c-1.1,0-1.6-0.8-1.6-1.7c0-0.5,0.2-1,0.5-1.3c0.3-0.3,0.7-0.4,1.1-0.4c1.2,0,1.6,0.9,1.6,1.7    C90.3,75.9,89.8,76.7,88.7,76.7z" fill="#62345B"/><path d="M96.9,72.1h-0.4c-0.3,0-0.5,0.2-0.5,0.5v2.6l-2.4-3c-0.1-0.1-0.2-0.2-0.4-0.2h-0.2c-0.3,0-0.5,0.2-0.5,0.5    v4.9c0,0.3,0.2,0.5,0.5,0.5h0.4c0.3,0,0.5-0.2,0.5-0.5v-2.6l2.4,3c0.1,0.1,0.2,0.2,0.4,0.2h0.1c0.3,0,0.5-0.2,0.5-0.5v-4.9    C97.4,72.3,97.2,72.1,96.9,72.1z" fill="#62345B"/></g></g></svg>